<mxfile host="app.diagrams.net" modified="2022-09-15T10:42:06.400Z" agent="5.0 (Windows NT 10.0; Win64; x64) AppleWebKit/537.36 (KHTML, like Gecko) Chrome/105.0.0.0 Safari/537.36" etag="XsL-O9d3zKfPTv5AsaXl" version="20.3.0" type="github" pages="3">
  <diagram id="ma00GnzFzS3rRG20niOK" name="Pagina-1">
    <mxGraphModel dx="782" dy="460" grid="1" gridSize="10" guides="1" tooltips="1" connect="1" arrows="1" fold="1" page="1" pageScale="1" pageWidth="827" pageHeight="1169" math="0" shadow="0">
      <root>
        <mxCell id="0" />
        <mxCell id="1" parent="0" />
        <mxCell id="FjGv_nEjMf2usxPZ8-Nt-3" style="edgeStyle=orthogonalEdgeStyle;rounded=0;orthogonalLoop=1;jettySize=auto;html=1;exitX=0.5;exitY=1;exitDx=0;exitDy=0;entryX=0.5;entryY=0;entryDx=0;entryDy=0;" edge="1" parent="1" source="FjGv_nEjMf2usxPZ8-Nt-1" target="FjGv_nEjMf2usxPZ8-Nt-2">
          <mxGeometry relative="1" as="geometry" />
        </mxCell>
        <mxCell id="FjGv_nEjMf2usxPZ8-Nt-1" value="start" style="ellipse;whiteSpace=wrap;html=1;" vertex="1" parent="1">
          <mxGeometry x="320" y="120" width="120" height="80" as="geometry" />
        </mxCell>
        <mxCell id="FjGv_nEjMf2usxPZ8-Nt-5" style="edgeStyle=orthogonalEdgeStyle;rounded=0;orthogonalLoop=1;jettySize=auto;html=1;exitX=0.5;exitY=1;exitDx=0;exitDy=0;entryX=0.5;entryY=0;entryDx=0;entryDy=0;" edge="1" parent="1" source="FjGv_nEjMf2usxPZ8-Nt-2" target="FjGv_nEjMf2usxPZ8-Nt-4">
          <mxGeometry relative="1" as="geometry" />
        </mxCell>
        <mxCell id="FjGv_nEjMf2usxPZ8-Nt-2" value="enter a year" style="shape=parallelogram;perimeter=parallelogramPerimeter;whiteSpace=wrap;html=1;fixedSize=1;" vertex="1" parent="1">
          <mxGeometry x="320" y="240" width="120" height="60" as="geometry" />
        </mxCell>
        <mxCell id="FjGv_nEjMf2usxPZ8-Nt-7" style="edgeStyle=orthogonalEdgeStyle;rounded=0;orthogonalLoop=1;jettySize=auto;html=1;exitX=0.5;exitY=1;exitDx=0;exitDy=0;entryX=0.5;entryY=0;entryDx=0;entryDy=0;" edge="1" parent="1" source="FjGv_nEjMf2usxPZ8-Nt-4" target="FjGv_nEjMf2usxPZ8-Nt-6">
          <mxGeometry relative="1" as="geometry">
            <mxPoint x="380" y="470" as="targetPoint" />
          </mxGeometry>
        </mxCell>
        <mxCell id="FjGv_nEjMf2usxPZ8-Nt-9" style="edgeStyle=orthogonalEdgeStyle;rounded=0;orthogonalLoop=1;jettySize=auto;html=1;exitX=1;exitY=0.5;exitDx=0;exitDy=0;entryX=0.5;entryY=0;entryDx=0;entryDy=0;" edge="1" parent="1" source="FjGv_nEjMf2usxPZ8-Nt-4" target="FjGv_nEjMf2usxPZ8-Nt-8">
          <mxGeometry relative="1" as="geometry" />
        </mxCell>
        <mxCell id="FjGv_nEjMf2usxPZ8-Nt-4" value="if year % 4 = 0 and year % 100 = 0" style="rhombus;whiteSpace=wrap;html=1;" vertex="1" parent="1">
          <mxGeometry x="340" y="340" width="80" height="80" as="geometry" />
        </mxCell>
        <mxCell id="FjGv_nEjMf2usxPZ8-Nt-16" style="edgeStyle=orthogonalEdgeStyle;rounded=0;orthogonalLoop=1;jettySize=auto;html=1;exitX=0.5;exitY=1;exitDx=0;exitDy=0;entryX=0.5;entryY=0;entryDx=0;entryDy=0;" edge="1" parent="1" source="FjGv_nEjMf2usxPZ8-Nt-6" target="FjGv_nEjMf2usxPZ8-Nt-15">
          <mxGeometry relative="1" as="geometry" />
        </mxCell>
        <mxCell id="FjGv_nEjMf2usxPZ8-Nt-6" value="schrikkeljaar" style="rounded=0;whiteSpace=wrap;html=1;" vertex="1" parent="1">
          <mxGeometry x="320" y="480" width="120" height="60" as="geometry" />
        </mxCell>
        <mxCell id="FjGv_nEjMf2usxPZ8-Nt-10" style="edgeStyle=orthogonalEdgeStyle;rounded=0;orthogonalLoop=1;jettySize=auto;html=1;entryX=1;entryY=0.5;entryDx=0;entryDy=0;" edge="1" parent="1" source="FjGv_nEjMf2usxPZ8-Nt-8" target="FjGv_nEjMf2usxPZ8-Nt-6">
          <mxGeometry relative="1" as="geometry">
            <mxPoint x="450" y="510" as="targetPoint" />
          </mxGeometry>
        </mxCell>
        <mxCell id="FjGv_nEjMf2usxPZ8-Nt-18" style="edgeStyle=orthogonalEdgeStyle;rounded=0;orthogonalLoop=1;jettySize=auto;html=1;entryX=0.5;entryY=0;entryDx=0;entryDy=0;" edge="1" parent="1" source="FjGv_nEjMf2usxPZ8-Nt-8" target="FjGv_nEjMf2usxPZ8-Nt-17">
          <mxGeometry relative="1" as="geometry" />
        </mxCell>
        <mxCell id="FjGv_nEjMf2usxPZ8-Nt-8" value="if year % 400 = 0" style="rhombus;whiteSpace=wrap;html=1;" vertex="1" parent="1">
          <mxGeometry x="560" y="470" width="80" height="80" as="geometry" />
        </mxCell>
        <mxCell id="FjGv_nEjMf2usxPZ8-Nt-11" value="false" style="text;html=1;strokeColor=none;fillColor=none;align=center;verticalAlign=middle;whiteSpace=wrap;rounded=0;" vertex="1" parent="1">
          <mxGeometry x="480" y="350" width="60" height="30" as="geometry" />
        </mxCell>
        <mxCell id="FjGv_nEjMf2usxPZ8-Nt-13" value="true" style="text;html=1;strokeColor=none;fillColor=none;align=center;verticalAlign=middle;whiteSpace=wrap;rounded=0;" vertex="1" parent="1">
          <mxGeometry x="320" y="440" width="60" height="30" as="geometry" />
        </mxCell>
        <mxCell id="FjGv_nEjMf2usxPZ8-Nt-14" value="true" style="text;html=1;strokeColor=none;fillColor=none;align=center;verticalAlign=middle;whiteSpace=wrap;rounded=0;" vertex="1" parent="1">
          <mxGeometry x="480" y="480" width="60" height="30" as="geometry" />
        </mxCell>
        <mxCell id="FjGv_nEjMf2usxPZ8-Nt-15" value="end" style="ellipse;whiteSpace=wrap;html=1;" vertex="1" parent="1">
          <mxGeometry x="320" y="580" width="120" height="80" as="geometry" />
        </mxCell>
        <mxCell id="FjGv_nEjMf2usxPZ8-Nt-19" style="edgeStyle=orthogonalEdgeStyle;rounded=0;orthogonalLoop=1;jettySize=auto;html=1;entryX=1;entryY=0.5;entryDx=0;entryDy=0;" edge="1" parent="1" source="FjGv_nEjMf2usxPZ8-Nt-17" target="FjGv_nEjMf2usxPZ8-Nt-15">
          <mxGeometry relative="1" as="geometry" />
        </mxCell>
        <mxCell id="FjGv_nEjMf2usxPZ8-Nt-17" value="geen schrikkeljaar" style="rounded=0;whiteSpace=wrap;html=1;" vertex="1" parent="1">
          <mxGeometry x="540" y="590" width="120" height="60" as="geometry" />
        </mxCell>
        <mxCell id="FjGv_nEjMf2usxPZ8-Nt-20" value="false" style="text;html=1;strokeColor=none;fillColor=none;align=center;verticalAlign=middle;whiteSpace=wrap;rounded=0;" vertex="1" parent="1">
          <mxGeometry x="540" y="550" width="60" height="30" as="geometry" />
        </mxCell>
      </root>
    </mxGraphModel>
  </diagram>
  <diagram id="BExI8mIGbs_l4280N5QF" name="Pagina-2">
    <mxGraphModel dx="1117" dy="657" grid="1" gridSize="10" guides="1" tooltips="1" connect="1" arrows="1" fold="1" page="1" pageScale="1" pageWidth="827" pageHeight="1169" math="0" shadow="0">
      <root>
        <mxCell id="0" />
        <mxCell id="1" parent="0" />
        <mxCell id="gUKYfUEBwHeSzWf6TRJl-3" style="edgeStyle=orthogonalEdgeStyle;rounded=0;orthogonalLoop=1;jettySize=auto;html=1;exitX=0.5;exitY=1;exitDx=0;exitDy=0;entryX=0.5;entryY=0;entryDx=0;entryDy=0;" edge="1" parent="1" source="gUKYfUEBwHeSzWf6TRJl-1" target="gUKYfUEBwHeSzWf6TRJl-2">
          <mxGeometry relative="1" as="geometry" />
        </mxCell>
        <mxCell id="gUKYfUEBwHeSzWf6TRJl-1" value="start" style="ellipse;whiteSpace=wrap;html=1;" vertex="1" parent="1">
          <mxGeometry x="120" y="40" width="120" height="80" as="geometry" />
        </mxCell>
        <mxCell id="gUKYfUEBwHeSzWf6TRJl-5" style="edgeStyle=orthogonalEdgeStyle;rounded=0;orthogonalLoop=1;jettySize=auto;html=1;exitX=0.5;exitY=1;exitDx=0;exitDy=0;entryX=0.5;entryY=0;entryDx=0;entryDy=0;" edge="1" parent="1" source="gUKYfUEBwHeSzWf6TRJl-2" target="gUKYfUEBwHeSzWf6TRJl-4">
          <mxGeometry relative="1" as="geometry" />
        </mxCell>
        <mxCell id="gUKYfUEBwHeSzWf6TRJl-2" value="str(input( &quot;does it have legs?&quot;))" style="shape=parallelogram;perimeter=parallelogramPerimeter;whiteSpace=wrap;html=1;fixedSize=1;" vertex="1" parent="1">
          <mxGeometry x="120" y="160" width="120" height="60" as="geometry" />
        </mxCell>
        <mxCell id="gUKYfUEBwHeSzWf6TRJl-7" style="edgeStyle=orthogonalEdgeStyle;rounded=0;orthogonalLoop=1;jettySize=auto;html=1;exitX=0.5;exitY=1;exitDx=0;exitDy=0;entryX=0.5;entryY=0;entryDx=0;entryDy=0;" edge="1" parent="1" source="gUKYfUEBwHeSzWf6TRJl-4" target="gUKYfUEBwHeSzWf6TRJl-6">
          <mxGeometry relative="1" as="geometry" />
        </mxCell>
        <mxCell id="gUKYfUEBwHeSzWf6TRJl-15" style="edgeStyle=orthogonalEdgeStyle;rounded=0;orthogonalLoop=1;jettySize=auto;html=1;exitX=1;exitY=0.5;exitDx=0;exitDy=0;entryX=0;entryY=0.5;entryDx=0;entryDy=0;" edge="1" parent="1" source="gUKYfUEBwHeSzWf6TRJl-4" target="gUKYfUEBwHeSzWf6TRJl-14">
          <mxGeometry relative="1" as="geometry" />
        </mxCell>
        <mxCell id="gUKYfUEBwHeSzWf6TRJl-4" value="if legs = &quot;no&quot;" style="rhombus;whiteSpace=wrap;html=1;" vertex="1" parent="1">
          <mxGeometry x="140" y="280" width="80" height="80" as="geometry" />
        </mxCell>
        <mxCell id="gUKYfUEBwHeSzWf6TRJl-9" style="edgeStyle=orthogonalEdgeStyle;rounded=0;orthogonalLoop=1;jettySize=auto;html=1;exitX=0.5;exitY=1;exitDx=0;exitDy=0;entryX=0.5;entryY=0;entryDx=0;entryDy=0;" edge="1" parent="1" source="gUKYfUEBwHeSzWf6TRJl-6" target="gUKYfUEBwHeSzWf6TRJl-8">
          <mxGeometry relative="1" as="geometry" />
        </mxCell>
        <mxCell id="gUKYfUEBwHeSzWf6TRJl-6" value="str(input(&quot;does it bark&quot;))" style="shape=parallelogram;perimeter=parallelogramPerimeter;whiteSpace=wrap;html=1;fixedSize=1;" vertex="1" parent="1">
          <mxGeometry x="120" y="400" width="120" height="60" as="geometry" />
        </mxCell>
        <mxCell id="gUKYfUEBwHeSzWf6TRJl-11" style="edgeStyle=orthogonalEdgeStyle;rounded=0;orthogonalLoop=1;jettySize=auto;html=1;exitX=0.5;exitY=1;exitDx=0;exitDy=0;entryX=0.5;entryY=0;entryDx=0;entryDy=0;" edge="1" parent="1" source="gUKYfUEBwHeSzWf6TRJl-8" target="gUKYfUEBwHeSzWf6TRJl-10">
          <mxGeometry relative="1" as="geometry" />
        </mxCell>
        <mxCell id="gUKYfUEBwHeSzWf6TRJl-19" style="edgeStyle=orthogonalEdgeStyle;rounded=0;orthogonalLoop=1;jettySize=auto;html=1;entryX=0.5;entryY=0;entryDx=0;entryDy=0;" edge="1" parent="1" source="gUKYfUEBwHeSzWf6TRJl-8" target="gUKYfUEBwHeSzWf6TRJl-18">
          <mxGeometry relative="1" as="geometry" />
        </mxCell>
        <mxCell id="gUKYfUEBwHeSzWf6TRJl-8" value="if bark = &quot;no&quot;" style="rhombus;whiteSpace=wrap;html=1;" vertex="1" parent="1">
          <mxGeometry x="140" y="510" width="80" height="80" as="geometry" />
        </mxCell>
        <mxCell id="gUKYfUEBwHeSzWf6TRJl-13" style="edgeStyle=orthogonalEdgeStyle;rounded=0;orthogonalLoop=1;jettySize=auto;html=1;exitX=0.5;exitY=1;exitDx=0;exitDy=0;entryX=0.5;entryY=0;entryDx=0;entryDy=0;" edge="1" parent="1" source="gUKYfUEBwHeSzWf6TRJl-10" target="gUKYfUEBwHeSzWf6TRJl-12">
          <mxGeometry relative="1" as="geometry">
            <mxPoint x="180.14285714285734" y="750" as="targetPoint" />
          </mxGeometry>
        </mxCell>
        <mxCell id="gUKYfUEBwHeSzWf6TRJl-10" value="it&#39;s a dog" style="rounded=0;whiteSpace=wrap;html=1;" vertex="1" parent="1">
          <mxGeometry x="120" y="640" width="120" height="60" as="geometry" />
        </mxCell>
        <mxCell id="gUKYfUEBwHeSzWf6TRJl-12" value="end" style="ellipse;whiteSpace=wrap;html=1;" vertex="1" parent="1">
          <mxGeometry x="120" y="760" width="120" height="80" as="geometry" />
        </mxCell>
        <mxCell id="gUKYfUEBwHeSzWf6TRJl-14" value="its a fish" style="rounded=0;whiteSpace=wrap;html=1;" vertex="1" parent="1">
          <mxGeometry x="500" y="290" width="120" height="60" as="geometry" />
        </mxCell>
        <mxCell id="gUKYfUEBwHeSzWf6TRJl-20" style="edgeStyle=orthogonalEdgeStyle;rounded=0;orthogonalLoop=1;jettySize=auto;html=1;entryX=1;entryY=0.5;entryDx=0;entryDy=0;" edge="1" parent="1" source="gUKYfUEBwHeSzWf6TRJl-18" target="gUKYfUEBwHeSzWf6TRJl-12">
          <mxGeometry relative="1" as="geometry" />
        </mxCell>
        <mxCell id="gUKYfUEBwHeSzWf6TRJl-18" value="it&#39;s a cat" style="rounded=0;whiteSpace=wrap;html=1;" vertex="1" parent="1">
          <mxGeometry x="510" y="770" width="120" height="60" as="geometry" />
        </mxCell>
        <mxCell id="gUKYfUEBwHeSzWf6TRJl-21" style="edgeStyle=orthogonalEdgeStyle;rounded=0;orthogonalLoop=1;jettySize=auto;html=1;entryX=0.5;entryY=1;entryDx=0;entryDy=0;" edge="1" parent="1" source="gUKYfUEBwHeSzWf6TRJl-14" target="gUKYfUEBwHeSzWf6TRJl-12">
          <mxGeometry relative="1" as="geometry">
            <mxPoint x="120" y="890" as="targetPoint" />
          </mxGeometry>
        </mxCell>
        <mxCell id="gUKYfUEBwHeSzWf6TRJl-22" value="true" style="text;html=1;strokeColor=none;fillColor=none;align=center;verticalAlign=middle;whiteSpace=wrap;rounded=0;" vertex="1" parent="1">
          <mxGeometry x="260" y="280" width="60" height="30" as="geometry" />
        </mxCell>
        <mxCell id="gUKYfUEBwHeSzWf6TRJl-23" value="false" style="text;html=1;strokeColor=none;fillColor=none;align=center;verticalAlign=middle;whiteSpace=wrap;rounded=0;" vertex="1" parent="1">
          <mxGeometry x="110" y="360" width="60" height="30" as="geometry" />
        </mxCell>
        <mxCell id="gUKYfUEBwHeSzWf6TRJl-24" value="true" style="text;html=1;strokeColor=none;fillColor=none;align=center;verticalAlign=middle;whiteSpace=wrap;rounded=0;" vertex="1" parent="1">
          <mxGeometry x="260" y="520" width="60" height="30" as="geometry" />
        </mxCell>
        <mxCell id="gUKYfUEBwHeSzWf6TRJl-25" value="false" style="text;html=1;strokeColor=none;fillColor=none;align=center;verticalAlign=middle;whiteSpace=wrap;rounded=0;" vertex="1" parent="1">
          <mxGeometry x="100" y="600" width="60" height="30" as="geometry" />
        </mxCell>
      </root>
    </mxGraphModel>
  </diagram>
  <diagram id="WK6qS51Xfp5jbTXRF-q0" name="Pagina-3">
    <mxGraphModel dx="782" dy="460" grid="1" gridSize="10" guides="1" tooltips="1" connect="1" arrows="1" fold="1" page="1" pageScale="1" pageWidth="827" pageHeight="1169" math="0" shadow="0">
      <root>
        <mxCell id="0" />
        <mxCell id="1" parent="0" />
        <mxCell id="bV8oNmZm-EHacQ_pgp47-3" style="edgeStyle=orthogonalEdgeStyle;rounded=0;orthogonalLoop=1;jettySize=auto;html=1;exitX=0.5;exitY=1;exitDx=0;exitDy=0;entryX=0.5;entryY=0;entryDx=0;entryDy=0;" edge="1" parent="1" source="bV8oNmZm-EHacQ_pgp47-1" target="bV8oNmZm-EHacQ_pgp47-2">
          <mxGeometry relative="1" as="geometry" />
        </mxCell>
        <mxCell id="bV8oNmZm-EHacQ_pgp47-1" value="start" style="ellipse;whiteSpace=wrap;html=1;" vertex="1" parent="1">
          <mxGeometry x="280" y="40" width="120" height="80" as="geometry" />
        </mxCell>
        <mxCell id="bV8oNmZm-EHacQ_pgp47-6" style="edgeStyle=orthogonalEdgeStyle;rounded=0;orthogonalLoop=1;jettySize=auto;html=1;exitX=0.5;exitY=1;exitDx=0;exitDy=0;entryX=0.5;entryY=0;entryDx=0;entryDy=0;" edge="1" parent="1" source="bV8oNmZm-EHacQ_pgp47-2" target="bV8oNmZm-EHacQ_pgp47-5">
          <mxGeometry relative="1" as="geometry" />
        </mxCell>
        <mxCell id="bV8oNmZm-EHacQ_pgp47-2" value="sequentie = str(input(&quot;voer uw sequentie in&quot;))" style="shape=parallelogram;perimeter=parallelogramPerimeter;whiteSpace=wrap;html=1;fixedSize=1;" vertex="1" parent="1">
          <mxGeometry x="280" y="160" width="120" height="80" as="geometry" />
        </mxCell>
        <mxCell id="bV8oNmZm-EHacQ_pgp47-8" style="edgeStyle=orthogonalEdgeStyle;rounded=0;orthogonalLoop=1;jettySize=auto;html=1;entryX=0;entryY=0.5;entryDx=0;entryDy=0;" edge="1" parent="1" source="bV8oNmZm-EHacQ_pgp47-5" target="bV8oNmZm-EHacQ_pgp47-7">
          <mxGeometry relative="1" as="geometry" />
        </mxCell>
        <mxCell id="bV8oNmZm-EHacQ_pgp47-10" style="edgeStyle=orthogonalEdgeStyle;rounded=0;orthogonalLoop=1;jettySize=auto;html=1;entryX=0.5;entryY=0;entryDx=0;entryDy=0;" edge="1" parent="1" source="bV8oNmZm-EHacQ_pgp47-5" target="bV8oNmZm-EHacQ_pgp47-9">
          <mxGeometry relative="1" as="geometry" />
        </mxCell>
        <mxCell id="bV8oNmZm-EHacQ_pgp47-5" value="if &quot;d&quot; or &quot;r&quot; in sequentie" style="rhombus;whiteSpace=wrap;html=1;" vertex="1" parent="1">
          <mxGeometry x="280" y="280" width="120" height="120" as="geometry" />
        </mxCell>
        <mxCell id="bV8oNmZm-EHacQ_pgp47-15" style="edgeStyle=orthogonalEdgeStyle;rounded=0;orthogonalLoop=1;jettySize=auto;html=1;" edge="1" parent="1" source="bV8oNmZm-EHacQ_pgp47-7">
          <mxGeometry relative="1" as="geometry">
            <mxPoint x="590" y="570" as="targetPoint" />
          </mxGeometry>
        </mxCell>
        <mxCell id="bV8oNmZm-EHacQ_pgp47-7" value="eiwitsequentie" style="rounded=0;whiteSpace=wrap;html=1;" vertex="1" parent="1">
          <mxGeometry x="530" y="310" width="120" height="60" as="geometry" />
        </mxCell>
        <mxCell id="bV8oNmZm-EHacQ_pgp47-12" style="edgeStyle=orthogonalEdgeStyle;rounded=0;orthogonalLoop=1;jettySize=auto;html=1;entryX=0.5;entryY=0;entryDx=0;entryDy=0;" edge="1" parent="1" source="bV8oNmZm-EHacQ_pgp47-9" target="bV8oNmZm-EHacQ_pgp47-11">
          <mxGeometry relative="1" as="geometry" />
        </mxCell>
        <mxCell id="bV8oNmZm-EHacQ_pgp47-9" value="DNA = len(sequentie)" style="rounded=0;whiteSpace=wrap;html=1;" vertex="1" parent="1">
          <mxGeometry x="280" y="480" width="120" height="60" as="geometry" />
        </mxCell>
        <mxCell id="bV8oNmZm-EHacQ_pgp47-14" style="edgeStyle=orthogonalEdgeStyle;rounded=0;orthogonalLoop=1;jettySize=auto;html=1;entryX=0;entryY=0.5;entryDx=0;entryDy=0;" edge="1" parent="1" source="bV8oNmZm-EHacQ_pgp47-11" target="bV8oNmZm-EHacQ_pgp47-13">
          <mxGeometry relative="1" as="geometry" />
        </mxCell>
        <mxCell id="bV8oNmZm-EHacQ_pgp47-11" value="print(DNA)&lt;br&gt;print(&quot;DNA&quot;)" style="rounded=0;whiteSpace=wrap;html=1;" vertex="1" parent="1">
          <mxGeometry x="280" y="585" width="120" height="60" as="geometry" />
        </mxCell>
        <mxCell id="bV8oNmZm-EHacQ_pgp47-13" value="end" style="ellipse;whiteSpace=wrap;html=1;" vertex="1" parent="1">
          <mxGeometry x="530" y="575" width="120" height="80" as="geometry" />
        </mxCell>
      </root>
    </mxGraphModel>
  </diagram>
</mxfile>
